External Loads File
version=1
nRows=85
nColumns=13
Range=5.000000e-03-10 seconds
endheader
time 	forceRightX 	forceRightY 	forceRightZ 	pointRightX 	pointRightY 	pointRightZ 	forceLeftX 	forceLeftY 	forceLeftZ 	pointLeftX 	pointLeftY 	pointLeftZ 		
5.005000 -318.922422 777.667867 -0.000000 0.419540 0.342157 -0.107660 53.287848 -47.303119 -0.000000 0.140681 0.271833 -0.355302
5.010000 -318.225864 804.825250 -0.000000 0.420871 0.331147 -0.107906 50.685988 -46.468844 -0.000000 0.140308 0.282111 -0.355372
5.015000 -313.392288 833.747554 -0.000000 0.421793 0.319956 -0.108269 47.345708 -45.983538 -0.000000 0.140450 0.292497 -0.355592
5.020000 -305.217858 863.568423 -0.000000 0.421843 0.308892 -0.108405 43.121655 -45.643864 -0.000000 0.141333 0.302983 -0.355663
5.025000 -293.533656 893.583722 -0.000000 0.421316 0.297922 -0.108344 37.930148 -45.325790 -0.000000 0.142875 0.313438 -0.355778
5.030000 -277.147815 923.265654 -0.000000 0.420059 0.286996 -0.108203 31.755918 -44.951772 -0.000000 0.145050 0.324075 -0.355903
5.035000 -257.204950 951.274286 -0.000000 0.418187 0.276217 -0.108039 24.789877 -44.371158 -0.000000 0.147558 0.334656 -0.355834
5.040000 -233.097960 976.800468 -0.000000 0.415609 0.265718 -0.107786 17.181584 -43.525362 -0.000000 0.150662 0.345446 -0.355736
5.045000 -206.353744 998.523654 -0.000000 0.412586 0.255296 -0.107838 9.199427 -42.340954 -0.000000 0.154254 0.355944 -0.355582
5.050000 -177.010837 1015.610801 -0.000000 0.409125 0.245111 -0.107869 1.046930 -40.832090 -0.000000 0.158433 0.366359 -0.355437
5.055000 -146.344926 1027.088897 -0.000000 0.405104 0.235240 -0.107880 -7.051269 -39.035485 -0.000000 0.162948 0.376552 -0.355202
5.060000 -112.948645 1032.486876 -0.000000 0.400564 0.225750 -0.107850 -15.044883 -36.947919 -0.000000 0.168078 0.387007 -0.355107
5.065000 -80.518654 1030.830070 -0.000000 0.395602 0.216581 -0.107902 -22.776016 -34.522569 -0.000000 0.173628 0.396771 -0.354882
5.070000 -46.288231 1021.999614 -0.000000 0.390075 0.207974 -0.107705 -30.349841 -31.452170 -0.000000 0.180437 0.406248 -0.355357
5.075000 -15.670046 1005.469415 -0.000000 0.384165 0.199686 -0.107494 -37.586178 -27.473967 -0.000000 0.186339 0.415468 -0.354669
5.080000 12.859455 981.288115 -0.000000 0.377938 0.191929 -0.107397 -44.505874 -22.070910 -0.000000 0.192472 0.424332 -0.353854
5.085000 40.106218 949.337419 -0.000000 0.371337 0.184639 -0.107207 -51.057830 -14.682443 -0.000000 0.199250 0.432547 -0.353674
5.090000 65.951509 909.454681 -0.000000 0.364493 0.177731 -0.107025 -57.106667 -4.847611 -0.000000 0.206581 0.440285 -0.353454
5.095000 89.796016 861.538885 -0.000000 0.357399 0.171350 -0.106791 -62.448239 7.651554 -0.000000 0.214308 0.447620 -0.353217
5.100000 110.639001 805.669619 -0.000000 0.350101 0.165556 -0.106553 -66.830290 22.673467 -0.000000 0.222253 0.454258 -0.353016
5.105000 128.458450 742.052905 -0.000000 0.342626 0.160257 -0.106403 -69.966773 39.784336 -0.000000 0.230212 0.460461 -0.352982
5.110000 143.606686 671.108578 -0.000000 0.334919 0.155720 -0.106306 -71.595665 58.324187 -0.000000 0.238428 0.465977 -0.353022
5.115000 156.294246 593.635016 -0.000000 0.326836 0.151889 -0.106196 -71.593376 77.592401 -0.000000 0.246701 0.470967 -0.353112
5.120000 166.181119 511.052731 -0.000000 0.318457 0.148742 -0.106156 -70.120459 97.037394 -0.000000 0.254789 0.475524 -0.353375
5.125000 173.851907 425.019040 -0.000000 0.309784 0.146442 -0.105732 -67.438577 116.596027 -0.000000 0.262939 0.479504 -0.353251
5.130000 179.450881 337.626526 -0.000000 0.300733 0.144492 -0.105619 -64.025118 136.554664 -0.000000 0.270963 0.482833 -0.353399
5.135000 183.224212 250.995459 -0.000000 0.291145 0.143371 -0.105424 -60.347357 157.540335 -0.000000 0.278923 0.485643 -0.353624
5.140000 184.701883 167.626942 -0.000000 0.281631 0.142876 -0.105430 -57.177032 180.206264 -0.000000 0.286805 0.486927 -0.353806
5.145000 184.005048 89.402630 -0.000000 0.271849 0.143146 -0.105387 -54.742674 205.341276 -0.000000 0.294570 0.488069 -0.354171
5.150000 180.729907 18.484555 -0.000000 0.262161 0.143872 -0.105281 -53.654991 233.367445 -0.000000 0.302054 0.488441 -0.354495
5.155000 174.836717 -43.458780 -0.000000 0.252789 0.145200 -0.104989 -54.418826 264.452634 -0.000000 0.309259 0.488048 -0.354835
5.160000 166.500280 -95.292878 -0.000000 0.243772 0.147060 -0.104950 -57.468689 298.431162 -0.000000 0.316233 0.486863 -0.355161
5.165000 156.083585 -136.526667 -0.000000 0.234991 0.149281 -0.104982 -62.967179 334.786158 -0.000000 0.323138 0.484717 -0.355437
5.170000 144.181882 -167.196875 -0.000000 0.226252 0.152210 -0.105098 -70.911436 372.636182 -0.000000 0.329964 0.481661 -0.356081
5.175000 131.669377 -187.752792 -0.000000 0.217463 0.155726 -0.105101 -81.337054 410.819572 -0.000000 0.336726 0.477810 -0.356710
5.180000 119.550242 -199.020166 -0.000000 0.208801 0.160052 -0.105045 -94.290631 448.097451 -0.000000 0.343444 0.473312 -0.357304
5.185000 108.517405 -202.245928 -0.000000 0.200387 0.165389 -0.105016 -109.222536 483.482355 -0.000000 0.350255 0.468030 -0.357717
5.190000 99.623613 -198.517287 -0.000000 0.192241 0.170542 -0.105015 -126.904371 515.938003 -0.000000 0.356909 0.462296 -0.358230
5.195000 92.550101 -189.540741 -0.000000 0.184450 0.176657 -0.105025 -145.357397 545.365217 -0.000000 0.363603 0.455621 -0.358673
5.200000 87.514632 -176.570361 -0.000000 0.177024 0.183265 -0.104916 -164.431873 571.584894 -0.000000 0.370209 0.448394 -0.359065
5.205000 84.391279 -160.842198 -0.000000 0.170160 0.190473 -0.105035 -183.720722 594.800988 -0.000000 0.376530 0.440696 -0.359403
5.210000 82.723881 -143.529723 -0.000000 0.163878 0.198147 -0.105131 -202.171119 615.725291 -0.000000 0.382730 0.432431 -0.359699
5.215000 82.267851 -125.481743 -0.000000 0.158139 0.206226 -0.105283 -219.736432 635.017568 -0.000000 0.388530 0.423794 -0.359809
5.220000 82.525406 -107.537540 -0.000000 0.152921 0.214930 -0.105433 -235.170121 653.883694 -0.000000 0.394034 0.414651 -0.360295
5.225000 83.302153 -90.196923 -0.000000 0.148269 0.223998 -0.105664 -248.558093 673.048773 -0.000000 0.399266 0.405067 -0.360582
5.230000 84.502492 -73.690547 -0.000000 0.144297 0.232945 -0.105912 -260.948818 692.724327 -0.000000 0.404160 0.395133 -0.360831
5.235000 85.760712 -58.508960 -0.000000 0.140870 0.242554 -0.106120 -270.398173 714.077936 -0.000000 0.408865 0.384829 -0.360896
5.240000 87.171358 -44.702698 -0.000000 0.138035 0.252223 -0.106280 -278.290806 736.811706 -0.000000 0.413017 0.374157 -0.361081
5.245000 88.600151 -32.641597 -0.000000 0.135841 0.262276 -0.106279 -283.583843 761.258609 -0.000000 0.416627 0.363105 -0.361350
5.250000 89.979408 -22.407888 -0.000000 0.134143 0.272365 -0.106298 -287.984485 786.484127 -0.000000 0.419614 0.352202 -0.361491
5.255000 90.993190 -14.366323 -0.000000 0.133123 0.282656 -0.106357 -290.814525 812.339047 -0.000000 0.421886 0.341278 -0.361475
5.260000 91.252154 -8.730282 -0.000000 0.132751 0.292828 -0.106375 -292.492178 838.271412 -0.000000 0.423589 0.330249 -0.361406
5.265000 90.255739 -5.891325 -0.000000 0.132869 0.303370 -0.106331 -291.371214 864.486823 -0.000000 0.424745 0.319066 -0.360988
5.270000 87.497119 -5.820146 -0.000000 0.133713 0.313886 -0.106477 -288.596332 890.184048 -0.000000 0.425383 0.307818 -0.361004
5.275000 82.495538 -8.443928 -0.000000 0.135182 0.324379 -0.106554 -283.939999 914.934400 -0.000000 0.425400 0.296575 -0.360879
5.280000 74.917689 -13.511687 -0.000000 0.137328 0.334944 -0.106811 -276.716740 938.292304 -0.000000 0.424997 0.285380 -0.361336
5.285000 64.665423 -20.575720 -0.000000 0.140244 0.345469 -0.107137 -266.498009 959.530682 -0.000000 0.423901 0.274272 -0.360930
5.290000 51.918360 -29.081564 -0.000000 0.143756 0.355857 -0.107413 -253.424264 977.570159 -0.000000 0.422251 0.263388 -0.360898
5.295000 37.053201 -38.573849 -0.000000 0.147824 0.366186 -0.107799 -236.271981 991.570407 -0.000000 0.419936 0.252646 -0.360908
5.300000 20.606355 -48.599171 -0.000000 0.152443 0.376663 -0.108164 -214.438929 1000.458761 -0.000000 0.417153 0.242103 -0.360947
5.305000 3.351002 -58.753416 -0.000000 0.157750 0.386508 -0.108438 -190.426526 1002.614085 -0.000000 0.413796 0.231974 -0.360942
5.310000 -14.107971 -68.817710 -0.000000 0.163250 0.396256 -0.108912 -163.074573 997.500702 -0.000000 0.409862 0.222067 -0.360825
5.315000 -31.114617 -78.551159 -0.000000 0.169277 0.405833 -0.109288 -133.670467 984.484105 -0.000000 0.405458 0.212666 -0.360683
5.320000 -47.140415 -87.698327 -0.000000 0.176057 0.414846 -0.109379 -103.216470 963.482147 -0.000000 0.400594 0.203673 -0.360508
5.325000 -61.722979 -96.020407 -0.000000 0.182600 0.423673 -0.109698 -73.545886 934.801085 -0.000000 0.395231 0.195077 -0.360365
5.330000 -74.656586 -103.211426 -0.000000 0.189366 0.432023 -0.110122 -45.269663 899.289618 -0.000000 0.389448 0.186868 -0.360142
5.335000 -85.911833 -108.910499 -0.000000 0.196414 0.440008 -0.110879 -18.734280 858.026640 -0.000000 0.383285 0.179095 -0.360036
5.340000 -95.878539 -112.458083 -0.000000 0.204727 0.447794 -0.110759 8.054274 812.128518 -0.000000 0.376666 0.171827 -0.359876
5.345000 -104.050714 -113.963183 -0.000000 0.212486 0.454847 -0.111326 30.278890 762.645087 -0.000000 0.369694 0.165022 -0.359713
5.350000 -110.833943 -112.836334 -0.000000 0.220701 0.461020 -0.111559 50.254707 710.585258 -0.000000 0.362267 0.158798 -0.359545
5.355000 -116.360939 -108.804400 -0.000000 0.229304 0.466882 -0.111677 68.326540 656.768408 -0.000000 0.354548 0.153219 -0.359370
5.360000 -120.692393 -101.813093 -0.000000 0.238144 0.472131 -0.111848 84.599895 601.933405 -0.000000 0.346395 0.148065 -0.359229
5.365000 -123.770615 -92.090243 -0.000000 0.247111 0.476698 -0.112069 98.710941 546.880282 -0.000000 0.337959 0.143635 -0.359027
5.370000 -125.623737 -79.880337 -0.000000 0.255890 0.480816 -0.112233 110.943299 492.373996 -0.000000 0.329113 0.139883 -0.358892
5.375000 -126.368367 -65.291290 -0.000000 0.264949 0.484282 -0.112441 122.268229 439.004234 -0.000000 0.319825 0.136961 -0.358876
5.380000 -125.914459 -48.720272 -0.000000 0.273868 0.487138 -0.112612 132.456188 387.560631 -0.000000 0.310142 0.134829 -0.358739
5.385000 -124.316467 -30.343723 -0.000000 0.282741 0.489304 -0.112724 141.853487 338.551159 -0.000000 0.300127 0.133375 -0.358448
5.390000 -121.686641 -10.249641 -0.000000 0.291496 0.490989 -0.112872 150.534190 292.309295 -0.000000 0.289784 0.132770 -0.358106
5.395000 -118.223248 11.576957 -0.000000 0.299942 0.491881 -0.112968 158.222753 249.052672 -0.000000 0.279257 0.132889 -0.357726
5.400000 -114.217056 35.499024 -0.000000 0.308279 0.492020 -0.113026 164.803660 208.655733 -0.000000 0.268674 0.133756 -0.357352
5.405000 -110.071627 61.857972 -0.000000 0.316206 0.491437 -0.112901 169.625935 171.239808 -0.000000 0.258191 0.135214 -0.357100
5.410000 -106.257531 91.213413 -0.000000 0.323733 0.490058 -0.112549 172.243943 136.903309 -0.000000 0.247970 0.137334 -0.356802
5.415000 -103.178315 124.213071 -0.000000 0.331063 0.487918 -0.112647 172.352332 105.767902 -0.000000 0.238049 0.140031 -0.356744
5.420000 -101.495839 161.137457 -0.000000 0.337778 0.484743 -0.112382 169.608852 78.433214 -0.000000 0.228689 0.143177 -0.356745
5.425000 -101.654067 202.186138 -0.000000 0.344146 0.481192 -0.112028 164.297355 55.052851 -0.000000 0.219840 0.146939 -0.356421
